<svg width="101" height="101" viewBox="0 0 101 101" fill="none" xmlns="http://www.w3.org/2000/svg">
<rect width="101" height="101" fill="#FF5B7E"/>
<path d="M6.64 44.72H10V60H14.72V44.72H22.48V60H27.2V40H14.72V39.24C14.72 36.2 16.04 35.36 18.4 35.36H19.64V30.8H18C13.08 30.8 10 33.16 10 38.92V40H6.64V44.72ZM22.04 33.6C22.04 35.16 23.28 36.44 24.84 36.44C26.4 36.44 27.68 35.16 27.68 33.6C27.68 32.08 26.4 30.8 24.84 30.8C23.28 30.8 22.04 32.08 22.04 33.6ZM36.5556 60V49.2C36.5556 46.04 38.6756 44.04 41.3956 44.04C43.9156 44.04 45.6756 45.6 45.6756 48.96V60H50.3956V47.96C50.3956 42.88 47.1956 39.6 42.5556 39.6C40.1956 39.6 38.0356 40.6 36.5556 42.16V40H31.8356V60H36.5556Z" fill="white"/>
<path d="M6.64 44.72H10V60H14.72V44.72H22.48V60H27.2V40H14.72V39.24C14.72 36.2 16.04 35.36 18.4 35.36H19.64V30.8H18C13.08 30.8 10 33.16 10 38.92V40H6.64V44.72ZM22.04 33.6C22.04 35.16 23.28 36.44 24.84 36.44C26.4 36.44 27.68 35.16 27.68 33.6C27.68 32.08 26.4 30.8 24.84 30.8C23.28 30.8 22.04 32.08 22.04 33.6ZM36.5556 60V49.2C36.5556 46.04 38.6756 44.04 41.3956 44.04C43.9156 44.04 45.6756 45.6 45.6756 48.96V60H50.3956V47.96C50.3956 42.88 47.1956 39.6 42.5556 39.6C40.1956 39.6 38.0356 40.6 36.5556 42.16V40H31.8356V60H36.5556Z" fill="black"/>
<path d="M63.68 60.4C66.64 60.4 69.32 59.16 71.2 57.16L67.88 53.8C66.84 54.96 65.32 55.68 63.68 55.68C60.56 55.68 58 53.12 58 50C58 46.88 60.56 44.32 63.68 44.32C65.32 44.32 66.84 45.04 67.88 46.16L71.2 42.84C69.32 40.84 66.64 39.6 63.68 39.6C57.96 39.6 53.28 44.24 53.28 50C53.28 55.72 57.96 60.4 63.68 60.4ZM72.8113 50C72.8113 55.72 77.0113 60.4 82.7313 60.4C85.2513 60.4 87.5713 59.08 88.8913 57.44V60H93.6113V40H88.8913V42.48C87.5713 40.92 85.2513 39.6 82.7313 39.6C77.0113 39.6 72.8113 44.28 72.8113 50ZM83.2113 44.32C86.3313 44.32 88.8913 46.88 88.8913 50C88.8913 53.12 86.3313 55.68 83.2113 55.68C80.0913 55.68 77.5313 53.12 77.5313 50C77.5313 46.88 80.0913 44.32 83.2113 44.32Z" fill="white"/>
</svg>
